#!OML:ASF Y:\EmotionMaleHayes\Project 1\Capture day 1\Session 1\Male1.ASF
:FULLY-SPECIFIED
:DEGREES
1238
root -27.1532 16.6527 2.99172 -598.966 82.3153 119.735
lowerback 8.75395 2.61733 -5.2249
upperback 4.57352 3.25919 -2.24988
thorax -0.299149 1.65797 0.30948
lowerneck -22.4289 -1.84671 1.05178
upperneck 17.407 -3.89638 4.82696
head 9.26399 -1.14526 0.949465
rclavicle 1.66234e-014 -1.63003e-014
rhumerus -46.5856 -3.4993 -44.5201
rradius 49.3259
rwrist -10.4353
rhand -23.3478 -35.3262
rfingers 7.12502
rthumb 3.10719 -65.2833
lclavicle 1.66234e-014 -1.63003e-014
lhumerus -32.3781 -15.8069 58.4411
lradius 48.5922
lwrist 10.8573
lhand -33.226 -23.064
lfingers 7.12502
lthumb -6.43235 6.81836
rfemur -3.66189 -3.66493 13.6601
rtibia 29.4757
rfoot -31.0651 -11.7213
rtoes 12.4125
lfemur 2.71907 7.54394 -18.6035
ltibia 13.3216
lfoot -18.523 15.3409
ltoes -22.5325
1239
root -27.2074 16.7092 2.9424 -609.731 82.708 108.987
lowerback 8.9248 2.81747 -5.36399
upperback 4.45866 3.48865 -2.28222
thorax -0.52755 1.77397 0.318192
lowerneck -22.5736 -1.66314 1.11998
upperneck 17.607 -3.63248 4.5977
head 9.34627 -1.0388 0.896722
rclavicle 3.58806e-014 4.6615e-014
rhumerus -46.4013 -6.4005 -44.2216
rradius 49.7495
rwrist -10.7442
rhand -23.9616 -35.9069
rfingers 7.12502
rthumb 2.51445 -65.8718
lclavicle 3.58806e-014 4.6615e-014
lhumerus -32.4611 -14.235 59.8312
lradius 47.9319
lwrist 10.4254
lhand -33.0744 -23.2149
lfingers 7.12502
lthumb -6.28607 6.67185
rfemur -4.07211 -3.35611 13.0226
rtibia 29.5138
rfoot -30.6067 -10.7642
rtoes 12.0109
lfemur 3.25831 7.99154 -19.2066
ltibia 12.4092
lfoot -18.84 15.4777
ltoes -20.9208
1240
root -27.2494 16.7655 2.89005 -617.212 82.3568 101.399
lowerback 8.91738 2.79462 -5.86576
upperback 4.29679 3.40513 -2.40369
thorax -0.705862 1.73063 0.473977
lowerneck -22.7591 -1.41388 1.35565
upperneck 17.8895 -3.31911 4.28906
head 9.46083 -0.904391 0.796647
rclavicle -3.85145e-015 -3.67752e-015
rhumerus -46.2864 -8.52031 -44.5622
rradius 50.4581
rwrist -12.021
rhand -25.2691 -36.9868
rfingers 7.12502
rthumb 1.25165 -66.9629
lclavicle -3.85145e-015 -3.67752e-015
lhumerus -32.6767 -12.8227 61.2653
lradius 47.2666
lwrist 10.1234
lhand -32.8376 -23.0681
lfingers 7.12502
lthumb -6.0574 6.82528
rfemur -4.07242 -3.68837 11.7986
rtibia 28.7847
rfoot -29.9689 -10.1119
rtoes 10.3354
lfemur 3.54489 8.104 -20.3064
ltibia 11.6274
lfoot -19.1967 15.2352
ltoes -18.7901
1241
root -27.284 16.8264 2.84915 -622.652 81.8674 96.0458
lowerback 8.9856 2.68606 -6.5273
upperback 4.19522 3.19508 -2.46591
thorax -0.864961 1.62322 0.790511
lowerneck -22.9061 -1.08776 1.78002
upperneck 18.2801 -2.9125 3.74801
head 9.60043 -0.739972 0.598767
rclavicle -3.35449e-015 2.96189e-014
rhumerus -46.0626 -10.5097 -45.0879
rradius 51.012
rwrist -12.9861
rhand -25.8836 -37.1815
rfingers 7.12502
rthumb 0.658126 -67.1603
lclavicle -3.35449e-015 2.96189e-014
lhumerus -32.9769 -11.4549 62.7993
lradius 46.6853
lwrist 9.95893
lhand -32.7143 -22.6533
lfingers 7.12502
lthumb -5.93835 7.24344
rfemur -3.4746 -4.15959 10.5782
rtibia 27.5878
rfoot -29.3637 -9.7093
rtoes 7.32237
lfemur 4.11312 8.11148 -21.2555
ltibia 10.7119
lfoot -19.212 14.7564
ltoes -16.0248
1242
root -27.3145 16.886 2.82129 -627.355 81.1983 91.58
lowerback 8.94034 2.57304 -7.51368
upperback 4.29664 2.98479 -2.46468
thorax -0.760954 1.50524 1.36381
lowerneck -23.2798 -0.770719 1.95438
upperneck 18.7196 -2.48855 3.40422
head 9.8089 -0.559397 0.512912
rclavicle 4.96962e-015 4.85035e-014
rhumerus -45.5586 -12.4668 -45.7839
rradius 51.5477
rwrist -13.8443
rhand -26.0803 -37.3468
rfingers 7.12502
rthumb 0.468217 -67.326
lclavicle 4.96962e-015 4.85035e-014
lhumerus -33.1061 -10.0007 64.4125
lradius 46.1035
lwrist 9.95702
lhand -32.3421 -22.2531
lfingers 7.12502
lthumb -5.57905 7.65342
rfemur -2.42593 -4.30387 9.32315
rtibia 25.9071
rfoot -28.6503 -9.27692
rtoes 6.4775
lfemur 4.87074 8.23966 -22.1622
ltibia 9.74642
lfoot -19.0575 13.8319
ltoes -11.6543
1243
root -27.3313 16.9397 2.81113 -626.815 80.1898 92.2375
lowerback 8.84476 2.24713 -9.00276
upperback 4.21932 2.44462 -2.44471
thorax -0.791648 1.22225 2.26541
lowerneck -23.4479 -0.488765 1.90025
upperneck 19.1492 -2.08322 3.32168
head 9.98743 -0.375229 0.555122
rclavicle 4.2192e-014 5.40694e-014
rhumerus -45.2452 -13.7656 -46.7062
rradius 52.0848
rwrist -14.5244
rhand -26.0174 -37.8185
rfingers 7.12502
rthumb 0.528974 -67.7976
lclavicle 4.2192e-014 5.40694e-014
lhumerus -33.5405 -8.85607 66.1109
lradius 45.4529
lwrist 10.3953
lhand -31.3479 -22.3455
lfingers 7.12502
lthumb -4.61911 7.58415
rfemur -0.963914 -4.52623 7.82059
rtibia 23.4751
rfoot -27.9771 -9.12525
rtoes 7.39492
lfemur 5.26309 8.15045 -23.2608
ltibia 9.05985
lfoot -18.9847 13.6454
ltoes -12.3491
1244
root -27.3615 16.9804 2.79573 -630.588 79.6554 88.3198
lowerback 8.84932 2.1787 -10.0012
upperback 3.80387 2.22745 -2.38695
thorax -1.23704 1.12608 2.8904
lowerneck -23.3104 -0.17529 1.9784
upperneck 19.5033 -1.64771 3.18067
head 10.0835 -0.179399 0.560204
rclavicle -2.64384e-014 -3.93594e-014
rhumerus -45.1556 -14.5332 -47.8449
rradius 52.4584
rwrist -15.0397
rhand -26.014 -38.3298
rfingers 7.12502
rthumb 0.532181 -68.3089
lclavicle -2.64384e-014 -3.93594e-014
lhumerus -34.1774 -8.29791 67.8781
lradius 44.6317
lwrist 10.9559
lhand -30.3519 -22.8119
lfingers 7.12502
lthumb -3.65727 7.1365
rfemur -0.426014 -4.31266 6.93267
rtibia 21.7118
rfoot -27.4998 -8.48484
rtoes 7.60579
lfemur 5.48232 8.26611 -23.9583
ltibia 8.13716
lfoot -18.5277 13.9288
ltoes -13.3179
1245
root -27.3876 17.0192 2.77347 -633.747 79.9937 85.2845
lowerback 9.01762 2.04646 -9.91875
upperback 3.58624 2.00805 -2.14734
thorax -1.5399 1.02797 3.10979
lowerneck -23.4939 0.181551 2.20549
upperneck 19.8911 -1.20071 2.9737
head 10.2498 0.0274407 0.520513
rclavicle -1.38652e-014 -5.96354e-016
rhumerus -44.9256 -15.1509 -49.2105
rradius 52.6984
rwrist -15.5872
rhand -25.9937 -38.5415
rfingers 7.12502
rthumb 0.551818 -68.5205
lclavicle -1.38652e-014 -5.96354e-016
lhumerus -34.6101 -8.25641 69.7601
lradius 43.7847
lwrist 10.862
lhand -30.1691 -22.7311
lfingers 7.12502
lthumb -3.48079 7.22025
rfemur 0.332597 -3.9302 7.22045
rtibia 20.1445
rfoot -27.0998 -7.94319
rtoes 8.07
lfemur 6.06078 8.24938 -23.5849
ltibia 7.19436
lfoot -17.8776 13.9768
ltoes -13.5013
1246
root -27.3964 17.0545 2.75339 -640.206 80.6137 78.8519
lowerback 8.79047 2.08718 -9.46486
upperback 3.40528 2.09872 -1.85306
thorax -1.61733 1.07311 3.15924
lowerneck -23.6981 0.41375 2.43172
upperneck 20.3427 -0.936118 2.80477
head 10.4474 0.157007 0.467823
rclavicle -9.49197e-015 1.98785e-016
rhumerus -44.8731 -15.4614 -50.6337
rradius 52.9217
rwrist -16.2059
rhand -25.7286 -38.5493
rfingers 7.12502
rthumb 0.807919 -68.5275
lclavicle -9.49197e-015 1.98785e-016
lhumerus -35.0411 -8.6243 71.7218
lradius 43.0871
lwrist 10.3715
lhand -30.0273 -22.2656
lfingers 7.12502
lthumb -3.34383 7.68793
rfemur 0.666927 -3.06508 8.18315
rtibia 19.1147
rfoot -26.8996 -7.35405
rtoes 8.89498
lfemur 6.70299 8.50855 -22.6865
ltibia 6.22962
lfoot -17.5078 14.1322
ltoes -13.2452
1247
root -27.413 17.0807 2.74087 -642.509 81.4017 76.3534
lowerback 8.35816 1.90988 -8.77991
upperback 3.19273 1.93907 -1.604
thorax -1.57507 0.991107 3.06532
lowerneck -23.6676 0.486429 2.62615
upperneck 20.626 -0.899144 2.77257
head 10.5452 0.19313 0.432285
rclavicle 2.3556e-014 1.17283e-014
rhumerus -45.0373 -15.4955 -52.1583
rradius 53.159
rwrist -16.8587
rhand -25.2963 -38.5253
rfingers 7.12502
rthumb 1.22537 -68.5015
lclavicle 2.3556e-014 1.17283e-014
lhumerus -35.4245 -9.60607 73.5877
lradius 42.8734
lwrist 10.577
lhand -28.9858 -22.1294
lfingers 7.12502
lthumb -2.338 7.83756
rfemur 0.761716 -2.7114 9.24204
rtibia 18.3901
rfoot -26.9295 -7.19079
rtoes 8.98892
lfemur 6.78726 7.84834 -21.8366
ltibia 5.60241
lfoot -17.4593 14.3942
ltoes -12.4661
1248
root -27.4365 17.1017 2.72735 -643.283 81.8807 75.4583
lowerback 8.15155 1.5712 -8.56621
upperback 3.13834 1.52063 -1.32718
thorax -1.4723 0.775704 3.28251
lowerneck -24.3891 0.739925 2.67273
upperneck 21.0568 -0.596653 2.71667
head 10.8341 0.340385 0.459016
rclavicle -1.45113e-014 1.47101e-014
rhumerus -44.4617 -15.1518 -53.9202
rradius 53.1088
rwrist -17.3527
rhand -24.6481 -38.035
rfingers 7.12502
rthumb 1.85143 -68.0067
lclavicle -1.45113e-014 1.47101e-014
lhumerus -35.5577 -9.96599 75.261
lradius 42.9477
lwrist 11.2525
lhand -27.029 -22.5506
lfingers 7.12502
lthumb -0.448067 7.42872
rfemur 0.904322 -2.6825 9.77828
rtibia 17.7195
rfoot -26.8802 -6.99873
rtoes 8.43957
lfemur 6.78096 7.29914 -21.4249
ltibia 5.19083
lfoot -17.244 14.4487
ltoes -12.5096
1249
root -27.4608 17.1141 2.71922 -644.704 82.0663 73.8961
lowerback 7.7709 1.36401 -8.55404
upperback 3.10347 1.28113 -1.23275
thorax -1.27129 0.64686 3.40469
lowerneck -24.8666 0.924357 2.87073
upperneck 21.3597 -0.436916 2.68798
head 11.0343 0.435079 0.447457
rclavicle 1.49089e-015 2.34566e-014
rhumerus -44.0811 -14.9276 -55.7142
rradius 52.9062
rwrist -17.4975
rhand -23.9034 -37.2773
rfingers 7.12502
rthumb 2.57067 -67.2415
lclavicle 1.49089e-015 2.34566e-014
lhumerus -35.1012 -10.4212 76.8778
lradius 41.8595
lwrist 10.2577
lhand -26.1494 -23.2718
lfingers 7.12502
lthumb 0.401417 6.7076
rfemur 0.975357 -2.50392 10.019
rtibia 17.0338
rfoot -26.7249 -6.62069
rtoes 9.0569
lfemur 6.72107 7.19837 -21.2083
ltibia 4.8519
lfoot -16.6599 14.3222
ltoes -14.2737
1250
root -27.4824 17.119 2.71352 -646.722 82.2881 71.7878
lowerback 7.41616 1.22129 -8.41979
upperback 3.03954 1.12952 -1.18235
thorax -1.1227 0.56527 3.40153
lowerneck -25.1545 1.06621 3.05707
upperneck 21.7009 -0.346128 2.7471
head 11.2165 0.510407 0.458923
rclavicle 4.37326e-015 6.36111e-015
rhumerus -44.0579 -14.3172 -57.5056
rradius 52.9059
rwrist -17.5461
rhand -23.0069 -36.7289
rfingers 7.12502
rthumb 3.43641 -66.681
lclavicle 4.37326e-015 6.36111e-015
lhumerus -34.6151 -10.86 78.3168
lradius 41.0033
lwrist 9.22136
lhand -24.6073 -23.6715
lfingers 7.12502
lthumb 1.89087 6.29984
rfemur 1.15166 -2.33843 10.3139
rtibia 16.3386
rfoot -26.6566 -6.25317
rtoes 10.0874
lfemur 6.7233 7.04738 -20.9098
ltibia 4.55412
lfoot -16.5705 13.9785
ltoes -13.6451
